<svg xmlns="http://www.w3.org/2000/svg" viewBox="0 0 100 100" width="100" height="100" role="img" aria-label="Relay">
  <!--
    The Baton, traced with a pen. Same geometry as relay-mark.svg, same boxes,
    wobbly outline. Used on the website's paper surfaces and in the app's
    illustration moments (DESIGN_SYSTEM §2.6). Never as an icon.
  -->
  <g transform="translate(50 52) rotate(-45)" fill="none" stroke-width="7" stroke-linecap="round" stroke-linejoin="round">
    <path d="M-45 -11 C-46 -16 -42 -19 -38 -18 L-8 -18 C-3 -18 -1 -14 -2 -10 C-2 -6 -5 -4 -9 -4 L-39 -4 C-44 -4 -46 -7 -45 -11 Z" stroke="var(--relay-lead, #1E1B18)"/>
    <path d="M3 10 C2 5 6 2 10 3 L40 3 C45 3 47 7 46 11 C46 15 43 17 39 17 L9 17 C4 17 2 14 3 10 Z" stroke="var(--relay-trail, #D9432A)" fill="var(--relay-trail, #D9432A)" fill-opacity="0.18"/>
  </g>
</svg>
